<svg width="70" height="70" viewBox="0 0 70 70" fill="none" xmlns="http://www.w3.org/2000/svg">
<path d="M19.778 22.2814C18.0694 20.5729 15.2993 20.5729 13.5908 22.2814L13.2814 22.5908C11.5729 24.2993 11.5729 27.0694 13.2814 28.778L31.3822 46.8788C31.4736 46.9902 31.5713 47.0982 31.6754 47.2023L31.9848 47.5117C33.6254 49.1523 36.2449 49.2175 37.9634 47.7072C38.0401 47.6405 38.1151 47.5705 38.1881 47.4975L38.4975 47.1881C38.5243 47.1614 38.5506 47.1343 38.5766 47.107L56.9039 28.7797C58.6125 27.0711 58.6125 24.301 56.9039 22.5925L56.5946 22.2831C54.886 20.5746 52.116 20.5746 50.4074 22.2831L35.0935 37.597L19.778 22.2814Z" fill="#D9D9D9"/>
</svg>
