<svg width="70" height="70" viewBox="0 0 70 70" fill="none" xmlns="http://www.w3.org/2000/svg">
<rect width="70" height="70" fill="white"/>
<path d="M19.778 32.2814C18.0694 30.5729 15.2993 30.5729 13.5908 32.2814L13.2814 32.5908C11.5729 34.2993 11.5729 37.0694 13.2814 38.778L31.3822 56.8788C31.4736 56.9902 31.5713 57.0982 31.6754 57.2023L31.9848 57.5117C33.6254 59.1523 36.2449 59.2175 37.9634 57.7072C38.0401 57.6405 38.1151 57.5705 38.1881 57.4975L38.4975 57.1881C38.5243 57.1614 38.5506 57.1343 38.5766 57.107L56.9039 38.7797C58.6125 37.0711 58.6125 34.301 56.9039 32.5925L56.5946 32.2831C54.886 30.5746 52.116 30.5746 50.4074 32.2831L35.0935 47.597L19.778 32.2814Z" fill="#D9D9D9"/>
<path d="M19.778 13.2814C18.0694 11.5729 15.2993 11.5729 13.5908 13.2814L13.2814 13.5908C11.5729 15.2993 11.5729 18.0694 13.2814 19.778L31.3822 37.8788C31.4736 37.9902 31.5713 38.0982 31.6754 38.2023L31.9848 38.5117C33.6254 40.1523 36.2449 40.2175 37.9634 38.7072C38.0401 38.6405 38.1151 38.5705 38.1881 38.4975L38.4975 38.1881C38.5243 38.1614 38.5506 38.1343 38.5766 38.107L56.9039 19.7797C58.6125 18.0711 58.6125 15.301 56.9039 13.5925L56.5946 13.2831C54.886 11.5746 52.116 11.5746 50.4074 13.2831L35.0935 28.597L19.778 13.2814Z" fill="#D9D9D9"/>
</svg>
