
<svg width="68" height="34" viewBox="0 0 68 34" fill="none" xmlns="http://www.w3.org/2000/svg">
<path d="M58.2415 6.23432C56.3964 4.20693 53.0228 5.51225 53.0228 8.25354V25.7164C53.0228 28.4615 56.4044 29.7649 58.2467 27.7299L66.1724 18.9756C67.2091 17.8305 67.2068 16.0854 66.1671 14.943L58.2415 6.23432ZM28.4911 16.9569C28.4911 14.0274 26.081 11.6149 23.3266 11.6149C20.3139 11.6149 17.8177 14.0274 17.8177 16.9569C17.8177 19.8864 20.3139 22.2128 23.3266 22.2128C26.081 22.2128 28.4911 19.8864 28.4911 16.9569ZM46.3089 16.9569C46.3089 14.0274 43.8987 11.6149 40.8861 11.6149C38.0456 11.6149 35.5494 14.0274 35.5494 16.9569C35.5494 19.8864 38.0456 22.2128 40.8861 22.2128C43.8987 22.2128 46.3089 19.8864 46.3089 16.9569ZM10.5873 16.9569C10.5873 14.0274 8.34937 11.6149 5.33671 11.6149C2.32405 11.6149 0 14.0274 0 16.9569C0 19.8864 2.32405 22.2128 5.33671 22.2128C8.34937 22.2128 10.5873 19.8864 10.5873 16.9569Z" fill="url(#paint0_linear_413_175644)"/>
<defs>
<linearGradient id="paint0_linear_413_175644" x1="71.5" y1="17.5" x2="-7.14595e-07" y2="17.5" gradientUnits="userSpaceOnUse">
<stop stop-color="#157DFF"/>
<stop offset="1" stop-color="#157DFF" stop-opacity="0"/>
</linearGradient>
</defs>
</svg>
