<svg width="34" height="68" viewBox="0 0 34 68" fill="none" xmlns="http://www.w3.org/2000/svg">
<path d="M27.7657 58.2415C29.7931 56.3964 28.4878 53.0228 25.7465 53.0228L8.28358 53.0228C5.53846 53.0228 4.23511 56.4044 6.27012 58.2467L15.0244 66.1724C16.1695 67.2091 17.9146 67.2068 19.057 66.1671L27.7657 58.2415ZM17.0431 28.4911C19.9726 28.4911 22.3851 26.081 22.3851 23.3266C22.3851 20.3139 19.9726 17.8177 17.0431 17.8177C14.1136 17.8177 11.7872 20.3139 11.7872 23.3266C11.7872 26.081 14.1136 28.4911 17.0431 28.4911ZM17.0431 46.3089C19.9726 46.3089 22.3851 43.8987 22.3851 40.8861C22.3851 38.0456 19.9726 35.5494 17.0431 35.5494C14.1136 35.5494 11.7872 38.0456 11.7872 40.8861C11.7872 43.8987 14.1136 46.3089 17.0431 46.3089ZM17.0431 10.5873C19.9726 10.5873 22.3851 8.34937 22.3851 5.33671C22.3851 2.32405 19.9726 -5.91302e-07 17.0431 -7.19355e-07C14.1136 -8.47407e-07 11.7872 2.32405 11.7872 5.33671C11.7872 8.34937 14.1136 10.5873 17.0431 10.5873Z" fill="url(#paint0_linear_413_138784)"/>
<defs>
<linearGradient id="paint0_linear_413_138784" x1="16.5" y1="71.5" x2="16.5" y2="-1.45769e-06" gradientUnits="userSpaceOnUse">
<stop stop-color="#157DFF"/>
<stop offset="1" stop-color="#157DFF" stop-opacity="0"/>
</linearGradient>
</defs>
</svg>
